<?xml version="1.0" encoding="UTF-8"?>
<svg width="60px" height="60px" viewBox="0 0 60 60" version="1.1" xmlns="http://www.w3.org/2000/svg" xmlns:xlink="http://www.w3.org/1999/xlink">
    <!-- Generator: Sketch 42 (36781) - http://www.bohemiancoding.com/sketch -->
    <title>Wechat_Black</title>
    <desc>Created with Sketch.</desc>
    <defs></defs>
    <g id="Page-1" stroke="none" stroke-width="1" fill="none" fill-rule="evenodd" opacity="0.5">
        <g id="Social_icons_black" transform="translate(-560.000000, -1469.000000)" fill="#000000">
            <g id="Black" transform="translate(60.000000, 169.000000)">
                <g id="Wechat" transform="translate(500.000000, 1300.000000)">
                    <path d="M0,30 C0,13.4314567 13.4314567,0 30,0 C46.5685433,0 60,13.4314567 60,30 C60,46.5685433 46.5685433,60 30,60 C13.4314567,60 0,46.5685433 0,30 Z M37.803,24.107 C38.005,24.107 38.205,24.109 38.404,24.12 C37.352,18.387 31.431,14 24.285,14 C16.395,14 10,19.349 10,25.947 C10,29.816 12.198,33.255 15.607,35.438 C15.651,35.466 15.738,35.521 15.738,35.521 L14.358,39.844 L19.522,37.214 C19.522,37.214 19.684,37.26 19.765,37.284 C21.184,37.679 22.706,37.893 24.285,37.893 C24.607,37.893 24.927,37.88 25.245,37.864 C24.952,36.955 24.791,36 24.791,35.014 C24.791,28.989 30.619,24.107 37.803,24.107 Z M25.8411,35.0841 C25.8411,40.6591 31.2461,45.1781 37.9121,45.1781 C39.2451,45.1781 40.5311,44.9961 41.7291,44.6611 C41.7981,44.6431 41.9351,44.6021 41.9351,44.6021 L46.2961,46.8261 L45.1301,43.1721 C45.1301,43.1721 45.2041,43.1261 45.2411,43.1031 C48.1201,41.2591 49.9781,38.3541 49.9781,35.0841 C49.9781,29.5111 44.5751,24.9921 37.9121,24.9921 C31.2461,24.9921 25.8411,29.5111 25.8411,35.0841 Z" id="Combined-Shape"></path>
                    <path d="M29.256,19.891 C30.364,19.891 31.261,20.759 31.261,21.832 C31.261,22.904 30.364,23.775 29.256,23.775 C28.147,23.775 27.251,22.904 27.251,21.832 C27.251,20.759 28.147,19.891 29.256,19.891" id="Fill-1"></path>
                    <path d="M40.4151,31.6071 C40.4151,30.7031 41.1731,29.9681 42.1091,29.9681 C43.0461,29.9681 43.8041,30.7031 43.8041,31.6071 C43.8041,32.5151 43.0461,33.2511 42.1091,33.2511 C41.1731,33.2511 40.4151,32.5151 40.4151,31.6071" id="Fill-2"></path>
                    <path d="M32.0161,31.6071 C32.0161,30.7031 32.7761,29.9681 33.7111,29.9681 C34.6481,29.9681 35.4071,30.7031 35.4071,31.6071 C35.4071,32.5151 34.6481,33.2511 33.7111,33.2511 C32.7761,33.2511 32.0161,32.5151 32.0161,31.6071" id="Fill-2"></path>
                    <path d="M19.314,23.775 C18.206,23.775 17.308,22.904 17.308,21.832 C17.308,20.759 18.206,19.891 19.314,19.891 C20.422,19.891 21.322,20.759 21.322,21.832 C21.322,22.904 20.422,23.775 19.314,23.775" id="Fill-1"></path>
                </g>
            </g>
        </g>
    </g>
</svg>